<?xml version="1.0" encoding="UTF-8"?>
<svg id="Layer_1" data-name="Layer 1" xmlns="http://www.w3.org/2000/svg" xmlns:xlink="http://www.w3.org/1999/xlink" viewBox="0 0 30 30">
  <defs>
    <style>
      .cls-1 {
        fill: none;
      }

      .cls-2 {
        clip-path: url(#clippath);
      }
    </style>
    <clipPath id="clippath">
      <rect class="cls-1" x="1.77" y="6.39" width="26.46" height="17.21"/>
    </clipPath>
  </defs>
  <g class="cls-2">
    <g id="Group_1055" data-name="Group 1055">
      <path id="Path_573" data-name="Path 573" d="M22.16,20.52h5.19c.49,0,.88-.39.88-.88v-5.09c0-.49-.39-.88-.88-.88h-2.16c-.21,0-.39.17-.39.39s.17.39.39.39h2.16c.06,0,.1.05.1.1v5.09c0,.06-.05.1-.1.1h-12.94c-.06,0-.1-.05-.1-.1v-5.09c0-.06.05-.1.1-.1h9.28c.21,0,.39-.17.39-.39s-.17-.39-.39-.39h-4.82v-1.06l.56.25c.32.14.68,0,.82-.32l.61-1.37c.14-.31,0-.68-.32-.82,0,0,0,0,0,0l-4.08-1.81c-.19-.1-.42-.03-.52.16-.1.19-.03.42.16.52.02,0,.03.02.05.02l3.95,1.75-.48,1.09-8.11-3.59c-.1-.04-.21-.04-.31,0l-8.11,3.59-.48-1.09,8.51-3.77c.15-.07.33-.07.48,0l3.06,1.36c.19.1.42.03.52-.16s.03-.42-.16-.52c-.02,0-.03-.02-.05-.02l-3.06-1.36c-.35-.16-.76-.16-1.11,0l-2.93,1.3v-.89c0-.29-.23-.52-.52-.52h-1.62c-.29,0-.52.23-.52.52v2.07l-3.05,1.35c-.31.14-.46.51-.32.82,0,0,0,0,0,0l.61,1.37c.14.31.51.46.82.32,0,0,0,0,0,0l.56-.25v2.74c0,.21.17.39.39.39s.39-.17.39-.39v-3.09l6.75-2.99,6.75,2.99v1.41h-3.69c-.49,0-.88.39-.88.88v5.09c0,.49.39.88.88.88h3.69v2.31h-4.67v-2.78c0-.49-.39-.88-.88-.88h-2.4c-.49,0-.88.39-.88.88v2.78h-3.06c.68-.82.66-2.02-.05-2.81-.01-.01-.02-.03-.01-.05.05-.18.08-.37.07-.55-.05-.84-.71-1.51-1.55-1.57h-.06v-1.01c0-.21-.17-.39-.39-.39s-.39.17-.39.39v1.18c-.72.35-1.08,1.17-.86,1.94,0,.02,0,.05-.01.06-.71.79-.73,1.99-.05,2.81h-.74c-.21,0-.39.17-.39.39s.17.39.39.39h25.68c.21,0,.39-.17.39-.39s-.17-.39-.39-.39h-1.92l.37-.37c.15-.15.15-.4,0-.55s-.4-.15-.55,0l-.64.64-.39-.39c-.15-.15-.4-.15-.55,0s-.15.4,0,.55l.12.12h-2.13v-2.32ZM5.97,7.17h1.11v.98l-1.11.49v-1.48ZM3.52,20.54c.19-.22.26-.52.18-.79-.14-.47.13-.96.6-1.09.47-.14.96.13,1.09.6.05.16.05.34,0,.5h0c-.08.27-.01.57.18.78.51.57.46,1.44-.11,1.94-.57.51-1.44.46-1.94-.11-.47-.52-.47-1.31,0-1.83h0ZM18.87,20.52h.72v2.31h-.72v-2.31ZM10.04,22.83v-2.78c0-.06.05-.1.1-.1h2.41c.06,0,.1.05.1.1v2.78h-2.62ZM20.37,20.52h1.01v2.31h-1.01v-2.31Z"/>
      <path id="Path_574" data-name="Path 574" d="M6.77,18.11h2.24c.34,0,.62-.28.62-.62v-2.18c0-.67-.55-1.22-1.22-1.22h-1.04c-.67,0-1.22.55-1.22,1.22v2.18c0,.34.28.62.62.62M6.92,15.3c0-.25.2-.44.45-.45h1.04c.25,0,.44.2.45.45v2.03h-1.93v-2.03Z"/>
      <path id="Path_575" data-name="Path 575" d="M11.88,12.35c.21,0,.39-.17.39-.39s-.17-.39-.39-.39h-1.07c-.21,0-.39.17-.39.39s.17.39.39.39h1.07Z"/>
      <path id="Path_576" data-name="Path 576" d="M21.05,15.23c-.16.05-.27.2-.27.37v2.99c0,.21.17.39.39.39s.39-.17.39-.39h0v-1.74l1.31,1.9c.1.16.3.23.48.18.19-.06.31-.24.3-.44l-.03-2.89c0-.21-.18-.39-.39-.38-.21,0-.39.18-.38.39h0l.02,1.78-1.38-2c-.1-.14-.27-.2-.43-.15Z"/>
      <path id="Path_577" data-name="Path 577" d="M19.88,16c.21,0,.39-.17.39-.39s-.17-.39-.39-.39h-1.25c-.21,0-.39.17-.39.39v2.96c0,.21.17.39.39.39h1.25c.21,0,.39-.17.39-.39s-.17-.39-.39-.39h-.86v-.71h.77c.21,0,.39-.17.39-.39s-.17-.39-.39-.39h-.77v-.71h.86Z"/>
      <path id="Path_578" data-name="Path 578" d="M24.44,15.98h.43v2.6c0,.21.17.39.39.39s.39-.17.39-.39h0v-2.6h.44c.21,0,.39-.17.39-.39s-.17-.39-.39-.39h-1.65c-.21,0-.39.17-.39.39s.17.39.39.39h0Z"/>
      <path id="Path_579" data-name="Path 579" d="M17.82,16.38c-.01-.66-.55-1.18-1.21-1.16h-.79c-.21,0-.39.17-.39.39v2.99c0,.21.17.39.39.39s.39-.17.39-.39v-.81l.94,1.07c.14.16.39.18.55.03.16-.14.18-.39.03-.55h0l-.75-.85c.49-.15.83-.6.84-1.11ZM16.61,16.77h-.4v-.78h.41c.22-.03.41.13.44.34.03.22-.13.41-.34.44-.03,0-.06,0-.09,0"/>
    </g>
  </g>
</svg>