<?xml version="1.0" encoding="UTF-8"?>
<svg id="Layer_1" data-name="Layer 1" xmlns="http://www.w3.org/2000/svg" xmlns:xlink="http://www.w3.org/1999/xlink" viewBox="0 0 30 30">
  <defs>
    <style>
      .cls-1 {
        fill: none;
      }

      .cls-2 {
        clip-path: url(#clippath);
      }
    </style>
    <clipPath id="clippath">
      <rect class="cls-1" x=".07" y="6.19" width="29.86" height="17.61"/>
    </clipPath>
  </defs>
  <g class="cls-2">
    <g id="Group_1061" data-name="Group 1061">
      <path id="Path_599" data-name="Path 599" d="M29.49,22.93h-1.59v-6.06h.32c.37,0,.68-.3.68-.67,0-.12-.03-.25-.1-.35l-1.46-2.47c-.12-.21-.35-.33-.59-.33h-.99c-.24.02-.42.24-.4.48.02.21.19.38.4.4h.88l1.23,2.08h-5.06v-2.08h1.26c.24.02.46-.16.48-.4s-.16-.46-.4-.48c-.03,0-.05,0-.08,0h-1.26v-2.02h1.54c.37,0,.68-.3.68-.68,0-.12-.03-.24-.1-.35l-2.09-3.48c-.12-.2-.35-.33-.59-.33h-10.96c-.24.02-.42.24-.4.48.02.21.19.38.4.4h10.85l1.85,3.08H6l1.85-3.08h1.76c.24-.02.42-.24.4-.48-.02-.21-.19-.38-.4-.4h-1.88c-.24,0-.46.13-.58.33l-2.09,3.48c-.19.32-.09.74.23.93.1.06.22.1.35.1h1.54v2.02h-3.94c-.24,0-.46.13-.59.33l-1.46,2.47c-.19.32-.09.74.23.93.11.06.23.1.35.1h.32v6.06H.51c-.24-.02-.46.16-.48.4-.02.24.16.46.4.48.03,0,.05,0,.08,0h28.98c.24.02.46-.16.48-.4.02-.24-.16-.46-.4-.48-.03,0-.05,0-.08,0M27.03,20.93h-1.24s-.04-.02-.04-.04v-2.1s.02-.04.04-.04h1.24v2.18ZM27.03,16.87v1h-1.24c-.5,0-.91.41-.91.92v2.1c0,.51.41.92.92.92h1.24v1.13h-4.21v-1.09c.32-.04.57-.32.57-.64v-1.45c0-.33-.24-.6-.57-.64v-2.24h4.21ZM19.57,19.98h2.95v.99h-2.95v-.99ZM3.35,13.92h3.83v2.08H2.12l1.23-2.08ZM2.97,18.75h1.24s.04.02.04.04v2.1s-.02.04-.04.04h-1.24v-2.18ZM2.97,21.8h1.24c.51,0,.92-.41.92-.92v-2.1c0-.51-.41-.92-.92-.92,0,0,0,0,0,0h-1.24v-1h4.21v6.06H2.97v-1.13ZM8.05,11.03h13.89v8.08h-2.6c-.36,0-.65.29-.65.65v1.45c0,.36.29.65.65.65h1.26v1.08h-3.59v-3.2c0-.37-.3-.67-.67-.67h-2.69c-.37,0-.67.3-.67.67v3.2h-4.93v-11.9ZM13.85,19.94h2.28v3h-2.28v-3ZM21.47,21.85h.47v1.08h-.47v-1.08Z"/>
      <path id="Path_600" data-name="Path 600" d="M13.69,18.16h2.62c.27,0,.49-.22.49-.49v-4.29c0-.27-.22-.49-.49-.49h-2.62c-.27,0-.49.22-.49.49v4.29c0,.27.22.49.49.49ZM14.08,13.77h1.85v3.52h-1.85v-3.52Z"/>
      <path id="Path_601" data-name="Path 601" d="M18.23,18.16h2.62c.27,0,.49-.22.49-.49v-4.29c0-.27-.22-.49-.49-.49h-2.62c-.27,0-.49.22-.49.49v4.29c0,.27.22.49.49.49M18.62,13.77h1.85v3.52h-1.85v-3.52Z"/>
      <path id="Path_602" data-name="Path 602" d="M11.77,12.9h-2.62c-.27,0-.49.22-.49.49v1.59c-.02.24.16.46.4.48.24.02.46-.16.48-.4,0-.03,0-.05,0-.08v-1.21h1.85v3.52h-1.85v-.62c.02-.24-.16-.46-.4-.48-.24-.02-.46.16-.48.4,0,.03,0,.05,0,.08v1c0,.27.22.49.49.49h2.62c.27,0,.49-.22.49-.49v-4.29c0-.27-.22-.49-.49-.49"/>
    </g>
  </g>
</svg>