<?xml version="1.0" encoding="UTF-8"?>
<svg id="Layer_1" data-name="Layer 1" xmlns="http://www.w3.org/2000/svg" xmlns:xlink="http://www.w3.org/1999/xlink" viewBox="0 0 30 30">
  <defs>
    <style>
      .cls-1 {
        fill: none;
      }

      .cls-2 {
        clip-path: url(#clippath);
      }
    </style>
    <clipPath id="clippath">
      <rect class="cls-1" x="2.19" y="2.19" width="25.62" height="25.62"/>
    </clipPath>
  </defs>
  <g id="Group_1058" data-name="Group 1058">
    <g class="cls-2">
      <g id="Group_1057" data-name="Group 1057">
        <path id="Path_580" data-name="Path 580" d="M27.2,6.77c.2,0,.37-.16.37-.37v-3.12c0-.47-.38-.85-.85-.85H10.38c-.47,0-.85.38-.85.85v4.44h-.96c-.2,0-.37.16-.37.37s.16.37.37.37h1.37c.25,0,.45.19.45.44,0,.11-.04.21-.11.29l-.75.9h-1.51l-.75-.9c-.09-.1-.12-.23-.1-.36.02-.13.1-.24.21-.31.17-.1.23-.33.13-.5s-.33-.23-.5-.13c-.3.18-.51.48-.56.82-.06.34.03.69.26.95l.3.36c-.71-.47-1.59-.59-2.4-.33-.19.06-.31.26-.25.46s.26.31.46.25c.5-.16,1.05-.12,1.53.1-.79.47-1.32,1.28-1.42,2.2l-.61,5.7c-.02.21-.18.39-.38.44l-.56.14c-.55.14-.94.64-.94,1.21v.57c0,.69.56,1.25,1.25,1.25h1.45c.2,0,.37-.16.37-.37s-.16-.37-.37-.37h-1.45c-.28,0-.51-.23-.51-.51v-.57c0-.23.16-.44.38-.49l.56-.14c.5-.13.87-.56.93-1.08l.61-5.69c.12-1.1,1.05-1.94,2.16-1.94h1.91c1.11,0,2.04.84,2.16,1.94l.61,5.7c.06.52.43.94.93,1.07l.56.14c.23.06.38.26.38.49v.57c0,.28-.23.51-.51.51h-7.31c-.2,0-.37.16-.37.37s.16.37.37.37h2.98v4.72c0,.47.38.85.85.85h16.34c.47,0,.85-.38.85-.85V7.81c0-.2-.16-.37-.37-.37s-.37.16-.37.37h0v18.9c0,.06-.05.12-.12.12H10.38c-.06,0-.12-.05-.12-.12v-4.72h3.59c.69,0,1.25-.56,1.25-1.25v-.57c0-.57-.39-1.07-.94-1.21l-.56-.14c-.21-.05-.36-.23-.38-.44l-.61-5.7c-.1-.91-.62-1.73-1.41-2.2.48-.22,1.02-.26,1.53-.1.19.06.4-.05.46-.25s-.05-.4-.25-.46h0c-.81-.25-1.69-.13-2.4.34l.3-.36c.42-.5.35-1.25-.15-1.66-.12-.1-.27-.18-.42-.23V3.28c0-.06.05-.12.12-.12,0,0,0,0,0,0h16.34c.06,0,.12.05.12.12h0v3.12c0,.2.16.37.36.37,0,0,0,0,0,0Z"/>
        <path id="Path_581" data-name="Path 581" d="M25.36,7.56l-3.11-2.58c-.14-.11-.34-.11-.47,0l-1.38,1.15v-.37c0-.2-.16-.37-.37-.37s-.37.16-.37.37c0,.97,0,.91,0,.97l-1,.82c-.16.13-.18.36-.06.51.07.09.18.14.29.14h.84v2.6h-.45c-.2,0-.37.16-.37.37s.16.37.37.37h5.43c.2,0,.37-.16.37-.37s-.16-.37-.37-.37h-.45v-2.6h.84c.2,0,.37-.16.37-.36,0-.11-.05-.22-.14-.29h0ZM22.01,5.74l2.09,1.74h-4.18l2.09-1.74ZM23.54,10.81h-3.06v-2.6h3.06v2.6Z"/>
        <path id="Path_582" data-name="Path 582" d="M11.78,5.2h3.66c.2,0,.37-.16.37-.37s-.16-.37-.37-.37h-3.66c-.2,0-.37.16-.37.37s.16.37.37.37"/>
        <path id="Path_583" data-name="Path 583" d="M11.78,6.49h3.66c.2,0,.37-.16.37-.37s-.16-.37-.37-.37h-3.66c-.2,0-.37.16-.37.37s.16.37.37.37"/>
        <path id="Path_584" data-name="Path 584" d="M11.78,7.78h3.66c.2,0,.37-.16.37-.37s-.16-.37-.37-.37h-3.66c-.2,0-.37.16-.37.37s.16.37.37.37"/>
        <path id="Path_585" data-name="Path 585" d="M25.12,15.47h-10.33c-.2,0-.37.16-.37.37s.16.37.37.37h10.33c.2,0,.37-.16.37-.37s-.16-.37-.37-.37"/>
        <path id="Path_586" data-name="Path 586" d="M25.12,17.29h-10.33c-.2,0-.37.16-.37.37s.16.37.37.37h10.33c.2,0,.37-.16.37-.37s-.16-.37-.37-.37"/>
        <path id="Path_587" data-name="Path 587" d="M25.12,13.66h-10.33c-.2,0-.37.16-.37.37s.16.37.37.37h10.33c.2,0,.37-.16.37-.37s-.16-.37-.37-.37"/>
        <path id="Path_588" data-name="Path 588" d="M25.12,19.11h-8.85c-.2,0-.37.16-.37.37s.16.37.37.37h8.85c.2,0,.37-.16.37-.37s-.16-.37-.37-.37h0"/>
        <path id="Path_589" data-name="Path 589" d="M25.12,20.92h-8.85c-.2,0-.37.16-.37.37s.16.37.37.37h8.85c.2,0,.37-.16.37-.37s-.16-.37-.37-.37h0"/>
        <path id="Path_590" data-name="Path 590" d="M25.12,22.74h-12.57c-.2,0-.37.16-.37.37s.16.37.37.37h12.57c.2,0,.37-.16.37-.37s-.16-.37-.37-.37"/>
        <path id="Path_591" data-name="Path 591" d="M25.12,24.55h-12.57c-.2,0-.37.16-.37.37s.16.37.37.37h12.57c.2,0,.37-.16.37-.37s-.16-.37-.37-.37"/>
        <path id="Path_592" data-name="Path 592" d="M8.74,17.02c-.18.02-.37-.02-.51-.13-.17-.11-.4-.07-.51.1,0,.01-.02.03-.02.04-.08.17-.02.38.14.48.16.11.34.19.54.22v.05c0,.2.16.37.37.37s.37-.16.37-.37v-.09c.39-.14.67-.47.74-.88.09-.5-.2-.99-.68-1.14-.1-.04-.2-.06-.28-.09-.12-.03-.23-.07-.34-.14-.06-.07-.08-.16-.06-.25.01-.07.07-.13.14-.15.21-.02.41.02.6.11.19.08.4-.02.48-.2.08-.19-.02-.4-.2-.48-.13-.05-.26-.09-.39-.12v-.07c0-.2-.16-.37-.37-.37s-.37.16-.37.37h0v.07c-.3.11-.52.35-.6.66-.09.34,0,.69.25.95.18.16.4.27.64.32.08.02.16.05.25.08.14.04.23.18.2.32-.03.19-.19.32-.38.32Z"/>
      </g>
    </g>
  </g>
</svg>