<?xml version="1.0" encoding="UTF-8"?>
<svg id="Layer_1" data-name="Layer 1" xmlns="http://www.w3.org/2000/svg" viewBox="0 0 30 30">
  <path d="M22.49,20.78h-2.66c-.24,0-.44.2-.44.44s.2.44.44.44h2.66c.24,0,.44-.2.44-.44s-.2-.44-.44-.44Z"/>
  <path d="M12.74,20.78h-2.66c-.24,0-.44.2-.44.44s.2.44.44.44h2.66c.24,0,.44-.2.44-.44s-.2-.44-.44-.44Z"/>
  <path d="M12.74,17.23h-2.66c-.24,0-.44.2-.44.44s.2.44.44.44h2.66c.24,0,.44-.2.44-.44s-.2-.44-.44-.44Z"/>
  <path d="M25.1,12.94v-3.2c0-1.73-1.41-3.14-3.14-3.14h-13.45c-1.73,0-3.14,1.41-3.14,3.14v3.2c-.77.2-1.34.9-1.34,1.73v7.17c0,.49.4.9.9.9h.9v2.13c0,.8.65,1.46,1.46,1.46.67,0,1.25-.45,1.41-1.1l.62-2.48h11.85l.62,2.48c.17.65.74,1.1,1.41,1.1.8,0,1.46-.65,1.46-1.46v-2.13h.9c.49,0,.9-.4.9-.9v-7.17c0-.83-.57-1.53-1.34-1.73h0ZM6.28,9.74c0-1.24,1-2.24,2.24-2.24h13.45c1.24,0,2.24,1,2.24,2.24v3.2c-.77.2-1.34.9-1.34,1.73v.9h-5.83c-.74,0-1.39.36-1.79.91-.41-.55-1.06-.91-1.79-.91h-5.83v-.9c0-.83-.57-1.53-1.34-1.73v-3.2ZM22.86,16.46v1.79h-7.17v-.45c0-.74.61-1.34,1.34-1.34h5.83ZM14.79,17.81v.45h-7.17v-1.79h5.83c.74,0,1.34.61,1.34,1.34ZM4.93,14.67c0-.49.4-.9.9-.9s.9.4.9.9v5.38h-1.79v-5.38ZM4.93,21.84v-.9h1.79v.9h-1.79ZM7.83,25.01c-.06.25-.29.42-.54.42-.31,0-.56-.25-.56-.56v-2.13h1.67s-.56,2.27-.56,2.27ZM7.62,21.84v-2.69h15.24v2.69H7.62ZM23.76,24.87c0,.31-.25.56-.56.56-.26,0-.48-.17-.54-.42l-.56-2.27h1.67s0,2.13,0,2.13ZM25.55,21.84h-1.79v-.9h1.79v.9ZM25.55,20.05h-1.79v-5.38c0-.49.4-.9.9-.9s.9.4.9.9v5.38Z"/>
  <path d="M8.52,11.08c.74,0,1.34-.6,1.34-1.34s-.6-1.34-1.34-1.34-1.34.6-1.34,1.34.6,1.34,1.34,1.34ZM8.52,9.29c.25,0,.45.2.45.45s-.2.45-.45.45-.45-.2-.45-.45.2-.45.45-.45Z"/>
  <path d="M8.97,13.32c0,.74.6,1.34,1.34,1.34s1.34-.6,1.34-1.34-.6-1.34-1.34-1.34-1.34.6-1.34,1.34ZM10.31,12.88c.25,0,.45.2.45.45s-.2.45-.45.45-.45-.2-.45-.45.2-.45.45-.45Z"/>
  <path d="M21.97,11.08c.74,0,1.34-.6,1.34-1.34s-.6-1.34-1.34-1.34-1.34.6-1.34,1.34.6,1.34,1.34,1.34ZM21.97,9.29c.25,0,.45.2.45.45s-.2.45-.45.45-.45-.2-.45-.45.2-.45.45-.45Z"/>
  <path d="M20.17,14.67c.74,0,1.34-.6,1.34-1.34s-.6-1.34-1.34-1.34-1.34.6-1.34,1.34.6,1.34,1.34,1.34ZM20.17,12.88c.25,0,.45.2.45.45s-.2.45-.45.45-.45-.2-.45-.45.2-.45.45-.45Z"/>
  <path d="M15.24,14.67c.74,0,1.34-.6,1.34-1.34s-.6-1.34-1.34-1.34-1.34.6-1.34,1.34.6,1.34,1.34,1.34ZM15.24,12.88c.25,0,.45.2.45.45s-.2.45-.45.45-.45-.2-.45-.45.2-.45.45-.45Z"/>
  <path d="M15.24,11.08c.74,0,1.34-.6,1.34-1.34s-.6-1.34-1.34-1.34-1.34.6-1.34,1.34.6,1.34,1.34,1.34ZM15.24,9.29c.25,0,.45.2.45.45s-.2.45-.45.45-.45-.2-.45-.45.2-.45.45-.45Z"/>
</svg>