<?xml version="1.0" encoding="UTF-8"?>
<svg id="Layer_1" data-name="Layer 1" xmlns="http://www.w3.org/2000/svg" xmlns:xlink="http://www.w3.org/1999/xlink" viewBox="0 0 24 24">
  <defs>
    <style>
      .cls-1 {
        fill: none;
      }

      .cls-2 {
        clip-path: url(#clippath);
      }
    </style>
    <clipPath id="clippath">
      <rect class="cls-1" x="3" y="4.12" width="18" height="15.75"/>
    </clipPath>
  </defs>
  <g class="cls-2">
    <g id="Group_600" data-name="Group 600">
      <path id="Path_426" data-name="Path 426" d="M10.76,7.26l1.78-.89h6.22v3.38h-4.04c-1.63-1.12-3.79-1.12-5.43,0h-4.04v-2.25h4.5c.35,0,.69-.08,1.01-.24M3,7.5v10.12c0,1.24,1.01,2.25,2.25,2.25h13.5c1.24,0,2.25-1.01,2.25-2.25V6.38c0-1.24-1.01-2.25-2.25-2.25h-6.22c-.35,0-.69.08-1.01.24l-1.77.89h-1.12v-.56c0-.31-.25-.56-.56-.56h-2.25c-.31,0-.56.25-.56.56v.56c-1.24,0-2.25,1.01-2.25,2.25M8.91,13.69c0-1.71,1.38-3.09,3.09-3.09,1.71,0,3.09,1.38,3.09,3.09,0,1.71-1.38,3.09-3.09,3.1h0c-1.71,0-3.09-1.38-3.09-3.09"/>
    </g>
  </g>
</svg>