<?xml version="1.0" encoding="UTF-8"?>
<svg id="Layer_1" data-name="Layer 1" xmlns="http://www.w3.org/2000/svg" xmlns:xlink="http://www.w3.org/1999/xlink" viewBox="0 0 24 24">
  <defs>
    <style>
      .cls-1 {
        fill: none;
      }

      .cls-2 {
        clip-path: url(#clippath);
      }
    </style>
    <clipPath id="clippath">
      <rect class="cls-1" x="3" y="3" width="18" height="18"/>
    </clipPath>
  </defs>
  <g class="cls-2">
    <g id="Group_435" data-name="Group 435">
      <path id="Path_211" data-name="Path 211" d="M3,4.97v6.15c0,.7.28,1.37.77,1.86l7.24,7.24c1.03,1.03,2.69,1.03,3.72,0,0,0,0,0,0,0l5.49-5.49c1.03-1.03,1.03-2.69,0-3.72,0,0,0,0,0,0l-7.24-7.24c-.49-.5-1.16-.77-1.86-.77h-6.15c-1.09,0-1.97.88-1.98,1.98M7.61,6.29c.73,0,1.32.59,1.32,1.32s-.59,1.32-1.32,1.32-1.32-.59-1.32-1.32.59-1.32,1.32-1.32h0"/>
    </g>
  </g>
</svg>