<?xml version="1.0" encoding="UTF-8"?>
<svg id="Layer_1" data-name="Layer 1" xmlns="http://www.w3.org/2000/svg" xmlns:xlink="http://www.w3.org/1999/xlink" viewBox="0 0 24 24">
  <defs>
    <style>
      .cls-1 {
        fill: none;
      }

      .cls-2 {
        clip-path: url(#clippath);
      }
    </style>
    <clipPath id="clippath">
      <rect class="cls-1" x="3" y="5.25" width="18" height="13.5"/>
    </clipPath>
  </defs>
  <g class="cls-2">
    <g id="Group_816" data-name="Group 816">
      <path id="Path_521" data-name="Path 521" d="M5.25,6.94c-.31,0-.56.25-.56.56v.78l6.06,4.98c.73.6,1.77.6,2.5,0l6.06-4.98v-.78c0-.31-.25-.56-.56-.56H5.25ZM4.69,10.46v6.04c0,.31.25.56.56.56h13.5c.31,0,.56-.25.56-.56v-6.04l-4.99,4.1c-1.35,1.11-3.29,1.11-4.64,0l-4.99-4.1ZM3,7.5c0-1.24,1.01-2.25,2.25-2.25h13.5c1.24,0,2.25,1.01,2.25,2.25v9c0,1.24-1.01,2.25-2.25,2.25H5.25c-1.24,0-2.25-1.01-2.25-2.25V7.5Z"/>
    </g>
  </g>
</svg>