<?xml version="1.0" encoding="UTF-8"?>
<svg id="Layer_1" data-name="Layer 1" xmlns="http://www.w3.org/2000/svg" xmlns:xlink="http://www.w3.org/1999/xlink" viewBox="0 0 24 24">
  <defs>
    <style>
      .cls-1 {
        fill: none;
      }

      .cls-2 {
        clip-path: url(#clippath);
      }
    </style>
    <clipPath id="clippath">
      <rect class="cls-1" x="4.96" y="2.61" width="14.09" height="18.78"/>
    </clipPath>
  </defs>
  <g class="cls-2">
    <g id="Group_555" data-name="Group 555">
      <path id="Path_422" data-name="Path 422" d="M7.3,19.63c-.32,0-.59-.26-.59-.59V4.96c0-.32.26-.59.59-.59h5.87v2.93c0,.65.53,1.17,1.17,1.17h2.93v10.57c0,.32-.26.59-.59.59H7.3ZM7.3,2.61c-1.3,0-2.35,1.05-2.35,2.35v14.09c0,1.3,1.05,2.35,2.35,2.35h9.39c1.3,0,2.35-1.05,2.35-2.35v-10.77c0-.62-.25-1.22-.69-1.66l-3.32-3.32c-.44-.44-1.04-.69-1.66-.69h-6.07ZM9.36,12c-.49,0-.88.39-.88.88s.39.88.88.88h5.28c.49,0,.88-.39.88-.88s-.39-.88-.88-.88h-5.28ZM9.36,15.52c-.49,0-.88.39-.88.88s.39.88.88.88h5.28c.49,0,.88-.39.88-.88s-.39-.88-.88-.88h-5.28Z"/>
    </g>
  </g>
</svg>