<?xml version="1.0" encoding="UTF-8"?>
<svg id="Layer_1" data-name="Layer 1" xmlns="http://www.w3.org/2000/svg" xmlns:xlink="http://www.w3.org/1999/xlink" viewBox="0 0 24 24">
  <defs>
    <style>
      .cls-1 {
        fill: none;
      }

      .cls-2 {
        clip-path: url(#clippath);
      }
    </style>
    <clipPath id="clippath">
      <rect class="cls-1" x="3" y="3" width="18" height="18"/>
    </clipPath>
  </defs>
  <g class="cls-2">
    <g id="Group_597" data-name="Group 597">
      <path id="Path_424" data-name="Path 424" d="M19.75,3.58c-.78-.78-2.03-.78-2.81,0,0,0,0,0,0,0l-1.07,1.07,3.48,3.48,1.07-1.07c.78-.78.78-2.03,0-2.81,0,0,0,0,0,0l-.66-.66ZM9.12,11.4c-.22.22-.38.48-.48.78l-1.05,3.15c-.1.31-.02.64.21.87.23.23.57.31.87.21l3.15-1.05c.29-.1.56-.26.78-.48l5.94-5.95-3.48-3.48-5.94,5.95ZM6.41,5.09c-1.88,0-3.41,1.53-3.41,3.41,0,0,0,0,0,0v9.09c0,1.88,1.53,3.41,3.41,3.41h9.09c1.88,0,3.41-1.53,3.41-3.41v-3.41c.02-.63-.48-1.15-1.1-1.17-.63-.02-1.15.48-1.17,1.1,0,.02,0,.04,0,.07v3.41c0,.63-.51,1.14-1.13,1.14,0,0,0,0,0,0H6.41c-.63,0-1.14-.51-1.14-1.13,0,0,0,0,0,0v-9.09c0-.63.5-1.14,1.13-1.14,0,0,0,0,0,0h3.41c.63-.02,1.12-.54,1.1-1.17-.02-.6-.5-1.08-1.1-1.1h-3.41Z"/>
    </g>
  </g>
</svg>