<?xml version="1.0" encoding="UTF-8"?>
<svg width="40px" height="40px" viewBox="0 0 40 40" version="1.1" xmlns="http://www.w3.org/2000/svg">
    <g stroke="none" stroke-width="1" fill="none" fill-rule="evenodd">
        <g transform="translate(8.000000, 8.000000)" fill="#333333" fill-rule="nonzero">
            <path d="M24,10.4 C24,4.6 18.6,0 12,0 C5.4,0 0,4.6 0,10.4 C0,15.4 4.3,19.7 10.1,20.3 C10.5,20.4 11,20.6 11.1,21 C11.2,21.3 11.2,21.9 11.1,22.3 C11,22.8 10.6,24.2 10.6,24.2 C10.5,24.5 10.3,25 11,24.7 C11.7,24.4 16.3,21.5 18.8,19.3 C20.6,17.7 24,14.5 24,10.4 Z M8.4,13.5 L5.4,13.5 C5,13.5 4.7,13.2 4.7,12.8 L4.7,8.8 C4.7,8.4 5,8.1 5.4,8.1 C5.8,8.1 6.1,8.4 6.1,8.8 L6.1,12.1 L8.4,12.1 C8.8,12.1 9.1,12.4 9.1,12.8 C9.1,13.2 8.8,13.5 8.4,13.5 Z M10.2,12.8 C10.2,13.2 9.9,13.5 9.5,13.5 C9.1,13.5 8.8,13.2 8.8,12.8 L8.8,8.8 C8.8,8.4 9.1,8.1 9.5,8.1 C9.9,8.1 10.2,8.4 10.2,8.8 L10.2,12.8 Z M15.6,12.8 C15.6,13.2 15.3,13.5 14.9,13.5 C14.5,13.5 14.2,13.2 14.2,12.8 L14.2,10.1 L12.9,12.2 C12.8,12.4 12.5,12.5 12.3,12.5 C12.1,12.5 11.8,12.4 11.7,12.2 L10.4,10.1 L10.4,12.8 C10.4,13.2 10.1,13.5 9.7,13.5 C9.3,13.5 9,13.2 9,12.8 L9,8.8 C9,8.5 9.2,8.2 9.5,8.1 C9.5,8.1 9.6,8.1 9.6,8.1 C9.8,8.1 10.1,8.2 10.2,8.4 L12.3,11.7 L14.4,8.4 C14.5,8.2 14.8,8.1 15,8.1 C15,8.1 15.1,8.1 15.1,8.1 C15.4,8.2 15.6,8.5 15.6,8.8 L15.6,12.8 Z M19.3,9.5 C19.3,9.9 19,10.2 18.6,10.2 L16.3,10.2 L16.3,11.5 L18.6,11.5 C19,11.5 19.3,11.8 19.3,12.2 C19.3,12.6 19,12.9 18.6,12.9 L15.6,12.9 C15.2,12.9 14.9,12.6 14.9,12.2 L14.9,8.8 C14.9,8.7 14.9,8.5 15,8.4 C15.1,8.3 15.2,8.2 15.3,8.2 L18.6,8.2 C19,8.2 19.3,8.5 19.3,8.9 C19.3,9.3 19,9.6 18.6,9.6 L16.3,9.6 L16.3,9.5 L19.3,9.5 Z"></path>
        </g>
    </g>
</svg>
