<?xml version="1.0" encoding="UTF-8"?>
<svg width="40px" height="40px" viewBox="0 0 40 40" version="1.1" xmlns="http://www.w3.org/2000/svg">
    <g stroke="none" stroke-width="1" fill="none" fill-rule="evenodd">
        <g transform="translate(8.000000, 8.000000)" fill="#333333" fill-rule="nonzero">
            <path d="M22.3,16.7 L17.7,16.7 C17.1,16.7 16.7,16.3 16.7,15.7 L16.7,14.3 C16.7,13.7 17.1,13.3 17.7,13.3 L22.3,13.3 C22.9,13.3 23.3,13.7 23.3,14.3 L23.3,15.7 C23.3,16.3 22.9,16.7 22.3,16.7 Z M6.3,16.7 L1.7,16.7 C1.1,16.7 0.7,16.3 0.7,15.7 L0.7,14.3 C0.7,13.7 1.1,13.3 1.7,13.3 L6.3,13.3 C6.9,13.3 7.3,13.7 7.3,14.3 L7.3,15.7 C7.3,16.3 6.9,16.7 6.3,16.7 Z M14.3,8.7 L9.7,8.7 C9.1,8.7 8.7,8.3 8.7,7.7 L8.7,6.3 C8.7,5.7 9.1,5.3 9.7,5.3 L14.3,5.3 C14.9,5.3 15.3,5.7 15.3,6.3 L15.3,7.7 C15.3,8.3 14.9,8.7 14.3,8.7 Z M12,24 C5.4,24 0,18.6 0,12 C0,5.4 5.4,0 12,0 C18.6,0 24,5.4 24,12 C24,18.6 18.6,24 12,24 Z M12,2 C6.5,2 2,6.5 2,12 C2,17.5 6.5,22 12,22 C17.5,22 22,17.5 22,12 C22,6.5 17.5,2 12,2 Z"></path>
        </g>
    </g>
</svg>
