<?xml version="1.0" encoding="UTF-8"?>
<svg id="Layer_1" data-name="Layer 1" xmlns="http://www.w3.org/2000/svg" viewBox="0 0 100 100">
  <defs>
    <style>
      .cls-1 {
        fill: #910000;
      }

      .cls-2 {
        fill: #fff;
      }
    </style>
  </defs>
  <rect class="cls-1" x="5.16" y="5.51" width="89.72" height="89.72" rx="44.86" ry="44.86"/>
  <g>
    <path class="cls-2" d="M65.79,36.34s-.01-.02-.02-.04c-.04-.07-.08-.13-.14-.19l-9.49-9.49c-.06-.06-.12-.1-.19-.14-.01,0-.02-.01-.04-.02-.12-.06-.24-.09-.38-.09h-19.15c-2.08,0-3.76,1.69-3.76,3.76v37.88c0,2.08,1.69,3.76,3.76,3.76h25.73c2.08,0,3.76-1.69,3.76-3.76v-9.76l7.56-7.56s0,0,0,0l1.46-1.46c1.27-1.27,1.27-3.35,0-4.62-.62-.62-1.44-.96-2.31-.96s-1.69.34-2.31.96l-1.46,1.46s0,0,0,0l-2.95,2.95v-12.31c0-.13-.03-.26-.09-.38ZM56.39,29.28l6.59,6.59h-4.53c-1.14,0-2.06-.93-2.06-2.06v-4.53ZM64.18,68.02c0,1.14-.93,2.06-2.06,2.06h-25.73c-1.14,0-2.06-.93-2.06-2.06V30.14c0-1.14.93-2.06,2.06-2.06h18.3v5.73c0,2.08,1.69,3.76,3.76,3.76h5.73v13.16l-7.94,7.94c-.11.11-.19.26-.23.41l-.99,4.41c-.06.28.02.58.23.79.16.16.38.25.6.25.06,0,.12,0,.19-.02l4.4-.99c.16-.03.3-.11.41-.23l3.33-3.33v8.06ZM71.5,45.81c.59-.59,1.62-.59,2.22,0,.61.61.61,1.6,0,2.22l-.86.86-2.21-2.22.86-.86ZM69.43,47.88l2.22,2.22-7.22,7.22h0s-4.6,4.61-4.6,4.61l-2.85.64.64-2.86,8.02-8.02h0s3.8-3.8,3.8-3.8Z"/>
    <path class="cls-2" d="M52.39,35.29c.47,0,.85-.38.85-.85s-.38-.85-.85-.85h-2.36c-.47,0-.85.38-.85.85s.38.85.85.85h2.36Z"/>
    <path class="cls-2" d="M55.85,39.85c.47,0,.85-.38.85-.85s-.38-.85-.85-.85h-5.82c-.47,0-.85.38-.85.85s.38.85.85.85h5.82Z"/>
    <path class="cls-2" d="M58.42,47.65c.47,0,.85-.38.85-.85s-.38-.85-.85-.85h-8.4c-.47,0-.85.38-.85.85s.38.85.85.85h8.4Z"/>
    <path class="cls-2" d="M58.42,52.21c.47,0,.85-.38.85-.85s-.38-.85-.85-.85h-8.4c-.47,0-.85.38-.85.85s.38.85.85.85h8.4Z"/>
    <path class="cls-2" d="M52.93,60.24c.47,0,.85-.38.85-.85s-.38-.85-.85-.85h-2.91c-.47,0-.85.38-.85.85s.38.85.85.85h2.91Z"/>
    <path class="cls-2" d="M52.93,64.8c.47,0,.85-.38.85-.85s-.38-.85-.85-.85h-2.91c-.47,0-.85.38-.85.85s.38.85.85.85h2.91Z"/>
    <path class="cls-2" d="M42.2,39.71c.22,0,.44-.08.6-.25l3.91-3.91c.33-.33.33-.87,0-1.2-.33-.33-.87-.33-1.2,0l-3.3,3.3-1.76-1.76c-.33-.33-.87-.33-1.2,0-.33.33-.33.87,0,1.2l2.36,2.36c.17.17.38.25.6.25Z"/>
    <path class="cls-2" d="M42.2,51.89c.22,0,.44-.08.6-.25l3.91-3.91c.33-.33.33-.87,0-1.2-.33-.33-.87-.33-1.2,0l-3.3,3.3-1.76-1.76c-.33-.33-.87-.33-1.2,0-.33.33-.33.87,0,1.2l2.36,2.36c.17.17.38.25.6.25Z"/>
    <path class="cls-2" d="M45.12,65.66c1.02,0,1.84-.83,1.84-1.84v-4.28c0-1.02-.83-1.84-1.84-1.84h-4.28c-1.02,0-1.84.83-1.84,1.84v4.28c0,1.02.83,1.84,1.84,1.84h4.28ZM40.69,63.81v-4.28c0-.08.06-.14.14-.14h4.28c.08,0,.14.06.14.14v4.28c0,.08-.06.14-.14.14h-4.28c-.08,0-.14-.06-.14-.14Z"/>
  </g>
</svg>