<?xml version="1.0" encoding="UTF-8"?>
<svg id="Layer_1" data-name="Layer 1" xmlns="http://www.w3.org/2000/svg" viewBox="0 0 100 100">
  <defs>
    <style>
      .cls-1 {
        fill: #910000;
      }

      .cls-2 {
        fill: #fff;
      }
    </style>
  </defs>
  <rect class="cls-1" x="5.83" y="6.2" width="88.33" height="88.33" rx="44.17" ry="44.17"/>
  <path class="cls-2" d="M40.19,48.96l-6.37,6.37-.91-.91c-.33-.33-.87-.33-1.2,0l-4.09,4.09c-.33.33-.33.87,0,1.2l11.97,11.97c.17.17.38.25.6.25s.43-.08.6-.25l4.09-4.09c.33-.33.33-.87,0-1.2l-.69-.69,2.8-2.8c.19-.19.44-.29.71-.29h8.6c1.14,0,2.26-.46,3.06-1.27l11.02-11.02c.33-.33.33-.87,0-1.2-1.08-1.08-2.46-1.8-3.95-2.07v-8.54l1.26,1.01c.16.13.34.19.53.19.25,0,.49-.11.66-.32.29-.36.24-.9-.13-1.19l-14.02-11.29s0,0,0,0h0s-.03-.02-.04-.03c-.03-.02-.06-.05-.1-.06-.02,0-.04-.01-.05-.02-.01,0-.03-.01-.04-.02,0,0-.02,0-.03-.01s-.02,0-.03,0c-.02,0-.04,0-.06-.01-.03,0-.06-.01-.1-.02-.02,0-.04,0-.06,0-.01,0-.03,0-.04,0-.02,0-.04,0-.06,0-.02,0-.04,0-.06.01-.03,0-.07.01-.1.02,0,0-.02,0-.02,0-.01,0-.02,0-.03.01,0,0-.01,0-.02,0-.03.01-.05.02-.08.03-.03.02-.06.04-.09.06-.02.01-.03.02-.05.03h0s0,0,0,0l-11.39,9.18s0,0,0,0l-2.63,2.12c-.36.29-.42.83-.13,1.19.17.21.41.32.66.32.19,0,.37-.06.53-.19l1.26-1.01v9.49c-.66.13-1.27.45-1.76.94ZM40.19,69.88l-10.78-10.78,2.89-2.89,10.77,10.78-2.89,2.89ZM43.64,37.16l10.55-8.5,10.55,8.5v9.77c-1.87.08-3.65.85-4.99,2.19l-2.72,2.72c-.03-.95-.39-1.87-1.04-2.58-.75-.83-1.83-1.31-2.96-1.31h-9.4v-10.79ZM42.61,49.65h10.43c.65,0,1.27.27,1.7.75.44.48.65,1.12.59,1.78-.11,1.16-1.17,2.07-2.42,2.07h-6.45c-.47,0-.85.38-.85.85s.38.85.85.85h8.52c.22,0,.44-.09.6-.25l5.37-5.37c1.21-1.21,2.87-1.82,4.58-1.68,1.1.08,2.14.48,3.02,1.13l-10.38,10.38c-.49.49-1.17.77-1.86.77h-8.6c-.72,0-1.4.28-1.91.79l-2.79,2.79-7.97-7.99,6.36-6.36c.33-.33.76-.51,1.22-.51Z"/>
  <path class="cls-2" d="M57.24,44.78c.32,0,.58-.26.58-.58v-6.1c0-.32-.26-.58-.58-.58h-6.1c-.32,0-.58.26-.58.58v6.1c0,.32.26.58.58.58h6.1ZM51.72,38.68h4.94v4.94h-4.94v-4.94Z"/>
</svg>