<?xml version="1.0" encoding="UTF-8"?>
<svg id="Layer_1" data-name="Layer 1" xmlns="http://www.w3.org/2000/svg" viewBox="0 0 100 100">
  <defs>
    <style>
      .cls-1 {
        fill: #910000;
      }

      .cls-2 {
        fill: #fff;
      }
    </style>
  </defs>
  <rect class="cls-1" x="5.1" y="4.98" width="91.39" height="91.39" rx="45.7" ry="45.7"/>
  <g>
    <path class="cls-2" d="M70.22,47.65h-6.47v-16.99c0-2.23-1.81-4.04-4.04-4.04h-19.42c-2.23,0-4.04,1.81-4.04,4.04v5.66h-6.47c-1.34,0-2.43,1.09-2.43,2.43v9.71c0,1.34,1.09,2.43,2.43,2.43h4.18c.21,0,.42.09.57.24l1.72,1.72v15.04c0,2.23,1.81,4.04,4.04,4.04h19.42c2.23,0,4.04-1.81,4.04-4.04v-3.71l1.72-1.72c.15-.15.36-.24.57-.24h4.18c1.34,0,2.43-1.09,2.43-2.43v-9.71c0-1.34-1.09-2.43-2.43-2.43ZM44.34,28.23h11.33v.81c0,.45-.36.81-.81.81h-9.71c-.45,0-.81-.36-.81-.81v-.81ZM33.96,49.27h-4.18c-.45,0-.81-.36-.81-.81v-9.71c0-.45.36-.81.81-.81h12.94c.45,0,.81.36.81.81v9.71c0,.45-.36.81-.81.81h-.81c-1.34,0-2.43,1.09-2.43,2.43v.14c0,.5-.38.7-.5.75-.12.05-.53.18-.88-.18l-.47-.47h0s-1.95-1.95-1.95-1.95c-.46-.46-1.07-.71-1.72-.71ZM59.71,70.3h-19.42c-1.34,0-2.43-1.09-2.43-2.43v-13.75c.26.09.52.15.79.15.31,0,.63-.06.94-.19.92-.38,1.5-1.24,1.5-2.24v-.14c0-.45.36-.81.81-.81h.81c1.34,0,2.43-1.09,2.43-2.43v-9.71c0-1.34-1.09-2.43-2.43-2.43h-4.85v-5.66c0-1.34,1.09-2.43,2.43-2.43h2.43v.81c0,1.34,1.09,2.43,2.43,2.43h9.71c1.34,0,2.43-1.09,2.43-2.43v-.81h2.43c1.34,0,2.43,1.09,2.43,2.43v16.99h-4.85c-1.34,0-2.43,1.09-2.43,2.43v9.71c0,1.34,1.09,2.43,2.43,2.43h.81c.45,0,.81.36.81.81v.14c0,1,.57,1.86,1.5,2.24.31.13.63.19.94.19.27,0,.54-.06.79-.15v2.43c0,1.34-1.09,2.43-2.43,2.43ZM71.03,59.78c0,.45-.36.81-.81.81h-4.18c-.65,0-1.26.25-1.72.71l-1.95,1.95h0s-.47.47-.47.47c-.35.35-.76.22-.88.18-.12-.05-.5-.25-.5-.75v-.14c0-1.34-1.09-2.43-2.43-2.43h-.81c-.45,0-.81-.36-.81-.81v-9.71c0-.45.36-.81.81-.81h12.94c.45,0,.81.36.81.81v9.71ZM53.24,35.51c0-.45.36-.81.81-.81h4.85c.45,0,.81.36.81.81s-.36.81-.81.81h-4.85c-.45,0-.81-.36-.81-.81ZM48.38,38.75c0-.45.36-.81.81-.81h9.71c.45,0,.81.36.81.81s-.36.81-.81.81h-9.71c-.45,0-.81-.36-.81-.81ZM59.71,41.99c0,.45-.36.81-.81.81h-8.09c-.45,0-.81-.36-.81-.81s.36-.81.81-.81h8.09c.45,0,.81.36.81.81ZM41.1,43.6c0-1.34-1.09-2.43-2.43-2.43h-4.85c-1.34,0-2.43,1.09-2.43,2.43s1.09,2.43,2.43,2.43h4.85c1.34,0,2.43-1.09,2.43-2.43ZM33.01,43.6c0-.45.36-.81.81-.81h4.85c.45,0,.81.36.81.81s-.36.81-.81.81h-4.85c-.45,0-.81-.36-.81-.81Z"/>
    <path class="cls-2" d="M67.55,55.29l-5.7,2.28c-.17.07-.3,0-.36-.04-.06-.04-.17-.14-.17-.32v-4.56c0-.18.11-.28.17-.32.04-.03.12-.07.21-.07.04,0,.09,0,.14.03l5.7,2.28c.15.06.24.2.24.36s-.1.3-.24.36Z"/>
    <path class="cls-2" d="M47.8,66.55h2.4c.95,0,1.72-.77,1.72-1.72v-4.36c0-.49-.2-.96-.56-1.3l-3.95-3.73c-.73-.69-1.87-.69-2.6,0l-3.95,3.73c-.36.34-.56.81-.56,1.3v4.36c0,.95.77,1.72,1.72,1.72h2.4c.38,0,.7-.31.7-.7v-3.3c0-.07.06-.12.12-.12h1.75c.07,0,.12.06.12.12v3.3c0,.38.31.7.7.7ZM46.98,61.04h-1.75c-.84,0-1.52.68-1.52,1.52v2.6h-1.71c-.18,0-.33-.15-.33-.33v-4.36c0-.11.05-.21.12-.29l3.95-3.73c.19-.18.49-.18.69,0l3.95,3.73c.08.07.12.18.12.29v4.36c0,.18-.15.33-.33.33h-1.71v-2.6c0-.84-.68-1.52-1.51-1.52Z"/>
  </g>
</svg>