<?xml version="1.0" encoding="UTF-8"?>
<svg id="Layer_1" data-name="Layer 1" xmlns="http://www.w3.org/2000/svg" viewBox="0 0 100 100">
  <defs>
    <style>
      .cls-1 {
        fill: #910000;
      }

      .cls-2 {
        fill: #fff;
      }
    </style>
  </defs>
  <rect class="cls-1" x="4.3" y="3.78" width="91.39" height="91.39" rx="45.7" ry="45.7"/>
  <g>
    <path class="cls-2" d="M24.03,51.02c.14.38.51.64.91.64h5.09v22.95c0,.54.44.97.97.97h37.99c.54,0,.97-.44.97-.97v-22.95h5.09c.41,0,.78-.26.91-.64.14-.38.02-.82-.29-1.08l-12.35-10.34c.17-.87.27-1.75.27-2.64,0-7.5-6.1-13.59-13.59-13.59s-13.59,6.1-13.59,13.59c0,.89.09,1.78.27,2.64l-12.35,10.34c-.31.26-.43.69-.29,1.08ZM46.4,73.63h-8.24v-17.65h8.24v17.65ZM50,25.31c6.42,0,11.65,5.23,11.65,11.65,0,.94-.11,1.87-.34,2.79-.03.14-.07.29-.12.45-1.42,4.95-6.02,8.41-11.19,8.41s-9.76-3.46-11.19-8.43c-.04-.14-.08-.29-.12-.44-.22-.9-.34-1.84-.34-2.78,0-6.42,5.23-11.65,11.65-11.65ZM37.25,41.66c1.94,5.29,7.05,8.9,12.75,8.9s10.82-3.63,12.75-8.9l9.63,8.06h-3.38c-.54,0-.97.44-.97.97v22.95h-19.67v-18.63c0-.54-.44-.97-.97-.97h-10.18c-.54,0-.97.44-.97.97v18.63h-4.24v-22.95c0-.54-.44-.97-.97-.97h-3.38l9.63-8.06Z"/>
    <path class="cls-2" d="M50.26,41.12h-.98c-.68,0-1.24-.55-1.24-1.24,0-.54-.44-.97-.97-.97s-.97.44-.97.97c0,1.67,1.29,3.04,2.92,3.17v1.38c0,.54.44.97.97.97s.97-.44.97-.97v-1.44c1.66-.33,2.92-1.8,2.92-3.56,0-1.49-1.01-2.77-2.45-3.12l-2.42-.59c-.57-.14-.97-.65-.97-1.23v-.45c0-.68.55-1.24,1.24-1.24h1.43c.68,0,1.24.55,1.24,1.24,0,.54.44.97.97.97s.97-.44.97-.97c0-1.67-1.29-3.04-2.92-3.17v-1.38c0-.54-.44-.97-.97-.97s-.97.44-.97.97v1.38c-1.63.13-2.92,1.5-2.92,3.17v.45c0,1.49,1.01,2.77,2.45,3.12l2.42.59c.57.14.97.65.97,1.23,0,.93-.76,1.68-1.68,1.68Z"/>
    <path class="cls-2" d="M62.84,66.2c.54,0,.97-.44.97-.97v-10.22c0-.54-.44-.97-.97-.97h-10.22c-.54,0-.97.44-.97.97v10.22c0,.54.44.97.97.97h10.22ZM53.6,55.98h8.27v8.27h-8.27v-8.27Z"/>
  </g>
  <rect class="cls-1" x="4.3" y="3.78" width="91.39" height="91.39" rx="45.7" ry="45.7"/>
  <g>
    <path class="cls-2" d="M27.68,50.8c.12.33.43.55.79.55h4.37v19.73c0,.46.37.84.84.84h32.66c.46,0,.84-.37.84-.84v-19.73h4.37c.35,0,.67-.22.79-.55.12-.33.02-.7-.25-.93l-10.62-8.89c.15-.75.23-1.51.23-2.27,0-6.44-5.24-11.69-11.69-11.69s-11.69,5.24-11.69,11.69c0,.77.08,1.53.23,2.27l-10.62,8.89c-.27.23-.37.6-.25.93ZM46.91,70.24h-7.08v-15.18h7.08v15.18ZM50,28.7c5.52,0,10.01,4.49,10.01,10.01,0,.81-.1,1.61-.29,2.4-.03.12-.06.25-.1.39-1.22,4.26-5.18,7.23-9.62,7.23s-8.39-2.97-9.62-7.25c-.04-.12-.07-.25-.1-.38-.19-.78-.29-1.58-.29-2.39,0-5.52,4.49-10.01,10.01-10.01ZM39.04,42.75c1.67,4.54,6.06,7.65,10.96,7.65s9.3-3.12,10.96-7.65l8.28,6.93h-2.91c-.46,0-.84.37-.84.84v19.73h-16.91v-16.01c0-.46-.37-.84-.84-.84h-8.75c-.46,0-.84.37-.84.84v16.01h-3.65v-19.73c0-.46-.37-.84-.84-.84h-2.91l8.28-6.93Z"/>
    <path class="cls-2" d="M50.23,42.29h-.84c-.59,0-1.06-.48-1.06-1.06,0-.46-.37-.84-.84-.84s-.84.37-.84.84c0,1.43,1.11,2.61,2.51,2.72v1.18c0,.46.37.84.84.84s.84-.37.84-.84v-1.23c1.43-.28,2.51-1.55,2.51-3.06,0-1.28-.87-2.38-2.11-2.68l-2.08-.51c-.49-.12-.83-.55-.83-1.06v-.39c0-.59.48-1.06,1.06-1.06h1.23c.59,0,1.06.48,1.06,1.06,0,.46.37.84.84.84s.84-.37.84-.84c0-1.43-1.11-2.61-2.51-2.72v-1.18c0-.46-.37-.84-.84-.84s-.84.37-.84.84v1.18c-1.4.11-2.51,1.29-2.51,2.72v.39c0,1.28.87,2.38,2.11,2.68l2.08.51c.49.12.83.55.83,1.06,0,.8-.65,1.45-1.45,1.45Z"/>
    <path class="cls-2" d="M61.04,63.85c.46,0,.84-.37.84-.84v-8.78c0-.46-.37-.84-.84-.84h-8.78c-.46,0-.84.37-.84.84v8.78c0,.46.37.84.84.84h8.78ZM53.09,55.07h7.11v7.11h-7.11v-7.11Z"/>
  </g>
</svg>