<?xml version="1.0" encoding="UTF-8"?>
<svg width="40px" height="40px" viewBox="0 0 40 40" version="1.1" xmlns="http://www.w3.org/2000/svg">
    <g stroke="none" stroke-width="1" fill="none" fill-rule="evenodd">
        <g transform="translate(4.000000, 4.000000)" fill="#333333" fill-rule="nonzero">
            <path d="M30,0 L2,0 C0.9,0 0,0.9 0,2 L0,30 C0,31.1 0.9,32 2,32 L30,32 C31.1,32 32,31.1 32,30 L32,2 C32,0.9 31.1,0 30,0 Z M30,30 L2,30 L2,2 L30,2 L30,30 Z"></path>
            <path d="M24,8 L16,8 L16,16 L8,16 L8,24 L16,24 L16,16 L24,16 L24,8 Z"></path>
            <path d="M6,6 L10,6 L10,10 L6,10 L6,6 Z"></path>
            <path d="M22,22 L26,22 L26,26 L22,26 L22,22 Z"></path>
        </g>
    </g>
</svg>
