<?xml version="1.0" encoding="UTF-8"?>
<svg width="40px" height="40px" viewBox="0 0 40 40" version="1.1" xmlns="http://www.w3.org/2000/svg">
    <g stroke="none" stroke-width="1" fill="none" fill-rule="evenodd">
        <g transform="translate(4.000000, 4.000000)" fill="#333333" fill-rule="nonzero">
            <path d="M28,0 L4,0 C1.8,0 0,1.8 0,4 L0,28 C0,30.2 1.8,32 4,32 L28,32 C30.2,32 32,30.2 32,28 L32,4 C32,1.8 30.2,0 28,0 Z M30,28 C30,29.1 29.1,30 28,30 L4,30 C2.9,30 2,29.1 2,28 L2,4 C2,2.9 2.9,2 4,2 L28,2 C29.1,2 30,2.9 30,4 L30,28 Z"></path>
            <path d="M16,6 C10.48,6 6,10.48 6,16 C6,21.52 10.48,26 16,26 C21.52,26 26,21.52 26,16 C26,10.48 21.52,6 16,6 Z M16,24 C11.58,24 8,20.42 8,16 C8,11.58 11.58,8 16,8 C20.42,8 24,11.58 24,16 C24,20.42 20.42,24 16,24 Z"></path>
            <path d="M15,11 L17,11 L17,21 L15,21 L15,11 Z"></path>
            <path d="M12,14 L20,14 L20,16 L12,16 L12,14 Z"></path>
        </g>
    </g>
</svg>
