<?xml version="1.0" encoding="UTF-8"?>
<svg width="40px" height="40px" viewBox="0 0 40 40" version="1.1" xmlns="http://www.w3.org/2000/svg">
    <g stroke="none" stroke-width="1" fill="none" fill-rule="evenodd">
        <g transform="translate(4.000000, 4.000000)" fill="#333333" fill-rule="nonzero">
            <path d="M28,0 L4,0 C1.79,0 0,1.79 0,4 L0,22 C0,24.21 1.79,26 4,26 L10,26 L10,30 L8,30 C7.45,30 7,30.45 7,31 C7,31.55 7.45,32 8,32 L24,32 C24.55,32 25,31.55 25,31 C25,30.45 24.55,30 24,30 L22,30 L22,26 L28,26 C30.21,26 32,24.21 32,22 L32,4 C32,1.79 30.21,0 28,0 Z M20,30 L12,30 L12,26 L20,26 L20,30 Z M30,22 C30,23.1 29.1,24 28,24 L4,24 C2.9,24 2,23.1 2,22 L2,4 C2,2.9 2.9,2 4,2 L28,2 C29.1,2 30,2.9 30,4 L30,22 Z"></path>
            <path d="M16,4 C9.38,4 4,9.38 4,16 L6,16 C6,10.48 10.48,6 16,6 L16,4 Z"></path>
            <path d="M24,10 L22,10 C22,13.31 19.31,16 16,16 L16,18 C20.42,18 24,14.42 24,10 Z"></path>
            <path d="M16,10 C13.79,10 12,11.79 12,14 C12,16.21 13.79,18 16,18 C18.21,18 20,16.21 20,14 C20,11.79 18.21,10 16,10 Z M16,16 C14.9,16 14,15.1 14,14 C14,12.9 14.9,12 16,12 C17.1,12 18,12.9 18,14 C18,15.1 17.1,16 16,16 Z"></path>
        </g>
    </g>
</svg>
