<?xml version="1.0" encoding="UTF-8"?>
<svg width="40px" height="40px" viewBox="0 0 40 40" version="1.1" xmlns="http://www.w3.org/2000/svg">
    <g stroke="none" stroke-width="1" fill="none" fill-rule="evenodd">
        <g transform="translate(4.000000, 4.000000)" fill="#333333" fill-rule="nonzero">
            <path d="M16,0 L0,12 L0,32 L32,32 L32,12 L16,0 Z M16,2.83 L29,12.71 L29,30 L3,30 L3,12.71 L16,2.83 Z"></path>
            <path d="M7,14 L13,14 L13,20 L7,20 L7,14 Z M9,16 L9,18 L11,18 L11,16 L9,16 Z"></path>
            <path d="M19,14 L25,14 L25,20 L19,20 L19,14 Z M21,16 L21,18 L23,18 L23,16 L21,16 Z"></path>
            <path d="M7,22 L13,22 L13,28 L7,28 L7,22 Z M9,24 L9,26 L11,26 L11,24 L9,24 Z"></path>
            <path d="M19,22 L25,22 L25,28 L19,28 L19,22 Z M21,24 L21,26 L23,26 L23,24 L21,24 Z"></path>
        </g>
    </g>
</svg>
