<?xml version="1.0" encoding="UTF-8"?>
<svg width="40px" height="40px" viewBox="0 0 40 40" version="1.1" xmlns="http://www.w3.org/2000/svg">
    <g stroke="none" stroke-width="1" fill="none" fill-rule="evenodd">
        <g transform="translate(4.000000, 4.000000)" fill="#333333" fill-rule="nonzero">
            <path d="M30,0 L2,0 C0.9,0 0,0.9 0,2 L0,30 C0,31.1 0.9,32 2,32 L30,32 C31.1,32 32,31.1 32,30 L32,2 C32,0.9 31.1,0 30,0 Z M30,30 L2,30 L2,2 L30,2 L30,30 Z"></path>
            <path d="M16,8 C18.2,8 20,6.2 20,4 C20,1.8 18.2,0 16,0 C13.8,0 12,1.8 12,4 C12,6.2 13.8,8 16,8 Z M16,2 C17.1,2 18,2.9 18,4 C18,5.1 17.1,6 16,6 C14.9,6 14,5.1 14,4 C14,2.9 14.9,2 16,2 Z"></path>
            <path d="M24,20 L8,20 C6.9,20 6,20.9 6,22 L6,30 L8,30 L8,22 L24,22 L24,30 L26,30 L26,22 C26,20.9 25.1,20 24,20 Z"></path>
            <path d="M10,12 L22,12 C23.1,12 24,11.1 24,10 L24,8 L22,8 L22,10 L10,10 L10,8 L8,8 L8,10 C8,11.1 8.9,12 10,12 Z"></path>
        </g>
    </g>
</svg>
