<?xml version="1.0" encoding="UTF-8"?>
<svg id="Layer_1" data-name="Layer 1" xmlns="http://www.w3.org/2000/svg" viewBox="0 0 30 30">
  <g id="OUTLINE">
    <g>
      <path d="M15,13.53c-2.71,0-4.92,2.2-4.92,4.92s2.2,4.92,4.92,4.92,4.92-2.2,4.92-4.92-2.2-4.92-4.92-4.92ZM15,22.37c-2.17,0-3.93-1.76-3.93-3.93s1.76-3.93,3.93-3.93,3.93,1.76,3.93,3.93-1.76,3.93-3.93,3.93Z"/>
      <path d="M15,15.49c-1.63,0-2.95,1.32-2.95,2.95,0,.27.22.49.49.49s.49-.22.49-.49c0-1.08.88-1.97,1.97-1.97.27,0,.49-.22.49-.49s-.22-.49-.49-.49Z"/>
      <path d="M25.81,9.59h-4.42v-1.47c0-.27-.22-.49-.49-.49h-5.9c-.27,0-.49.22-.49.49v1.47h-1.23l-1.33-1.77c-.09-.12-.24-.2-.39-.2h-3.93c-.15,0-.3.07-.39.2l-1.33,1.77h-1.72c-.81,0-1.47.66-1.47,1.47v14.75c0,.81.66,1.47,1.47,1.47h9.34c.27,0,.49-.22.49-.49s-.22-.49-.49-.49H4.19c-.27,0-.49-.22-.49-.49v-10.32h5.1c-.43.89-.67,1.89-.67,2.95,0,3.79,3.09,6.88,6.88,6.88s6.88-3.09,6.88-6.88c0-1.06-.25-2.05-.67-2.95h5.1v10.32c0,.27-.22.49-.49.49h-8.36c-.27,0-.49.22-.49.49s.22.49.49.49h8.36c.81,0,1.47-.66,1.47-1.47v-14.75c0-.81-.66-1.47-1.47-1.47ZM19.42,8.61h.98v.98h-.98v-.98ZM17.46,8.61h.98v.98h-.98v-.98ZM15.49,8.61h.98v.98h-.98v-.98ZM15,24.34c-3.25,0-5.9-2.64-5.9-5.9s2.64-5.9,5.9-5.9,5.9,2.64,5.9,5.9-2.64,5.9-5.9,5.9ZM26.31,14.51h-5.67c-1.24-1.78-3.3-2.95-5.64-2.95s-4.39,1.17-5.64,2.95H3.69v-3.44c0-.27.22-.49.49-.49h1.97c.15,0,.3-.07.39-.2l1.33-1.77h3.44l1.33,1.77c.09.12.24.2.39.2h12.78c.27,0,.49.22.49.49v3.44Z"/>
      <circle cx="5.17" cy="12.05" r=".49"/>
      <circle cx="7.14" cy="12.05" r=".49"/>
      <path d="M17.95,6.64c.27,0,.49-.22.49-.49v-2.95c0-.27-.22-.49-.49-.49s-.49.22-.49.49v2.95c0,.27.22.49.49.49Z"/>
      <path d="M15.54,6.37c.12.24.42.34.66.22.24-.12.34-.42.22-.66l-.98-1.97c-.12-.24-.42-.34-.66-.22-.24.12-.34.42-.22.66,0,0,.98,1.96.98,1.97Z"/>
      <path d="M19.7,6.59c.23.12.54.02.66-.22l.98-1.97c.12-.24.02-.54-.22-.66-.24-.12-.54-.02-.66.22l-.98,1.97c-.12.24-.02.54.22.66Z"/>
      <circle cx="15.49" cy="26.8" r=".49"/>
    </g>
  </g>
</svg>