<?xml version="1.0" encoding="UTF-8"?>
<svg id="Layer_1" data-name="Layer 1" xmlns="http://www.w3.org/2000/svg" xmlns:xlink="http://www.w3.org/1999/xlink" viewBox="0 0 150 150">
  <defs>
    <style>
      .cls-1 {
        fill: none;
      }

      .cls-2 {
        clip-path: url(#clippath);
      }
    </style>
    <clipPath id="clippath">
      <rect class="cls-1" x="12.25" y="37.18" width="125.49" height="81.64"/>
    </clipPath>
  </defs>
  <g class="cls-2">
    <g id="Group_1055" data-name="Group 1055">
      <path id="Path_573" data-name="Path 573" d="M108.95,104.16h24.62c2.3,0,4.17-1.87,4.17-4.17v-24.15c0-2.3-1.87-4.17-4.17-4.17h-10.25c-1.02-.05-1.88.73-1.93,1.74-.05,1.02.73,1.88,1.74,1.93.06,0,.13,0,.19,0h10.25c.27,0,.5.22.5.5v24.15c0,.27-.22.49-.5.5h-61.39c-.27,0-.5-.22-.5-.5v-24.15c0-.27.22-.5.5-.5h44.03c1.02-.05,1.8-.92,1.74-1.93-.05-.94-.8-1.7-1.74-1.74h-22.85v-5.04l2.66,1.18c1.49.66,3.24-.01,3.91-1.51l2.87-6.48c.66-1.49-.01-3.24-1.51-3.9l-19.37-8.59c-.91-.46-2.01-.09-2.47.81-.46.91-.09,2.01.81,2.47.05.03.11.05.17.07l18.72,8.3-2.29,5.17-38.46-17.05c-.47-.21-1.02-.21-1.49,0l-38.46,17.05-2.29-5.17,40.35-17.89c.73-.32,1.56-.32,2.29,0l14.52,6.44c.91.46,2.01.09,2.47-.81.46-.91.09-2.01-.81-2.47-.05-.03-.11-.05-.17-.07l-14.52-6.44c-1.68-.74-3.6-.74-5.27,0l-13.89,6.16v-4.24c0-1.37-1.11-2.47-2.48-2.47h-7.68c-1.37,0-2.47,1.11-2.47,2.48v9.84l-14.49,6.42c-1.49.66-2.17,2.41-1.5,3.9l2.88,6.48c.66,1.49,2.4,2.17,3.89,1.51,0,0,0,0,.01,0l2.66-1.18v12.99c.05,1.02.92,1.8,1.93,1.74.94-.05,1.7-.8,1.74-1.74v-14.62l32.03-14.2,32.03,14.2v6.67h-17.51c-2.3,0-4.17,1.87-4.17,4.17v24.15c0,2.3,1.87,4.17,4.17,4.17h17.51v10.98h-22.15v-13.18c0-2.3-1.86-4.16-4.16-4.16h-11.43c-2.3,0-4.16,1.86-4.16,4.16v13.18h-14.52c3.24-3.89,3.13-9.56-.24-13.33-.06-.06-.08-.14-.07-.22.25-.85.36-1.74.31-2.62-.24-3.98-3.39-7.16-7.36-7.44-.09,0-.19,0-.28-.01v-4.79c-.05-1.02-.92-1.8-1.93-1.74-.94.05-1.7.8-1.74,1.74v5.59c-3.4,1.68-5.12,5.55-4.08,9.2.03.1.02.22-.05.3-3.37,3.77-3.47,9.44-.23,13.32h-3.49c-1.02-.05-1.88.73-1.93,1.74-.05,1.02.73,1.88,1.74,1.93.06,0,.13,0,.19,0h121.81c1.02-.05,1.8-.92,1.74-1.93-.05-.94-.8-1.7-1.74-1.74h-9.11l1.78-1.78c.76-.68.82-1.84.14-2.6s-1.84-.82-2.6-.14c-.05.04-.1.09-.14.14l-3.04,3.04-1.86-1.86c-.76-.68-1.92-.62-2.6.14-.63.7-.63,1.76,0,2.46l.59.59h-10.11v-10.98ZM32.18,40.85h5.28v4.67l-5.28,2.34v-7.01ZM20.56,104.28c.91-1.02,1.23-2.45.85-3.76-.63-2.22.66-4.53,2.88-5.16,2.22-.63,4.53.66,5.16,2.88.22.76.21,1.57-.01,2.32h0c-.37,1.3-.05,2.71.85,3.72,2.4,2.68,2.18,6.81-.51,9.21-2.68,2.4-6.81,2.18-9.21-.51-2.22-2.48-2.22-6.22,0-8.7h0ZM93.36,104.17h3.44v10.98h-3.44v-10.98ZM51.46,115.15v-13.18c0-.27.22-.49.49-.49h11.43c.27,0,.49.22.49.49v13.18h-12.41ZM100.48,104.16h4.79v10.98h-4.79v-10.98Z"/>
      <path id="Path_574" data-name="Path 574" d="M35.94,92.73h10.6c1.64,0,2.96-1.33,2.96-2.96v-10.36c0-3.19-2.59-5.78-5.79-5.79h-4.94c-3.2,0-5.79,2.59-5.79,5.79v10.36c0,1.64,1.33,2.96,2.96,2.96M36.66,79.42c0-1.17.95-2.11,2.11-2.11h4.94c1.17,0,2.11.95,2.11,2.11v9.64h-9.17v-9.64Z"/>
      <path id="Path_575" data-name="Path 575" d="M60.2,65.44c1.02-.05,1.8-.92,1.74-1.93-.05-.94-.8-1.7-1.74-1.74h-5.07c-1.02.05-1.8.92-1.74,1.93.05.94.8,1.7,1.74,1.74h5.07Z"/>
      <path id="Path_576" data-name="Path 576" d="M103.68,79.1c-.77.24-1.29.95-1.29,1.76v14.16c-.05,1.02.73,1.88,1.74,1.93s1.88-.73,1.93-1.74c0-.06,0-.13,0-.19v-8.26l6.22,9.01c.49.76,1.42,1.1,2.29.84.89-.3,1.47-1.15,1.43-2.09l-.13-13.71c-.06-1.01-.93-1.79-1.95-1.73-.94.06-1.69.82-1.73,1.76l.08,8.44-6.54-9.47c-.46-.66-1.29-.95-2.06-.71Z"/>
      <path id="Path_577" data-name="Path 577" d="M98.14,82.73c1.02-.05,1.8-.92,1.74-1.93-.05-.94-.8-1.7-1.74-1.74h-5.92c-1.02,0-1.84.82-1.84,1.84v14.05c0,1.02.82,1.84,1.84,1.84h5.92c1.02.05,1.88-.73,1.93-1.74s-.73-1.88-1.74-1.93c-.06,0-.13,0-.19,0h-4.08v-3.35h3.64c1.02.05,1.88-.73,1.93-1.74s-.73-1.88-1.74-1.93c-.06,0-.13,0-.19,0h-3.65v-3.35h4.09Z"/>
      <path id="Path_578" data-name="Path 578" d="M119.77,82.66h2.06v12.35c.05,1.02.92,1.8,1.93,1.74.94-.05,1.7-.8,1.74-1.74v-12.35h2.1c1.02.05,1.88-.73,1.93-1.74s-.73-1.88-1.74-1.93c-.06,0-.13,0-.19,0h-7.84c-1.02.05-1.8.92-1.74,1.93.05.94.8,1.7,1.74,1.74Z"/>
      <path id="Path_579" data-name="Path 579" d="M88.36,84.51c-.06-3.11-2.63-5.58-5.73-5.52h-3.78c-1.02,0-1.84.82-1.84,1.84v14.18c.05,1.02.92,1.8,1.93,1.74.94-.05,1.7-.8,1.74-1.74v-3.84l4.45,5.06c.71.73,1.88.74,2.6.03.67-.66.74-1.72.16-2.46l-3.54-4.02c2.35-.69,3.97-2.82,4-5.27ZM82.63,86.36c-.45,0-1.2,0-1.92,0,0-.7,0-1.42,0-1.86v-1.85h1.93c1.02-.11,1.94.63,2.05,1.65.11,1.02-.63,1.94-1.65,2.05-.13.01-.27.01-.4,0"/>
    </g>
  </g>
</svg>